<svg width="420" height="536" viewBox="0 0 420 536" fill="none" xmlns="http://www.w3.org/2000/svg">
<path fill-rule="evenodd" clip-rule="evenodd" d="M20 0C8.95431 0 0 8.95429 0 20V481.148C11.5 480.706 22.4078 485.823 32.7091 490.826L32.8487 490.895C43.227 495.987 53.9476 501.247 65.4217 501.211C75.7372 501.209 85.5533 496.991 95.2937 492.806C106.818 487.855 118.237 482.949 130.252 485.123C137.078 486.353 143.442 489.842 149.732 493.291C158.563 498.133 167.251 502.897 176.879 501.222C182.786 500.2 187.861 496.809 192.951 493.408C197.485 490.379 202.031 487.342 207.189 485.962C218.204 482.952 229.332 487.931 239.963 492.687C241.619 493.428 243.263 494.163 244.892 494.862C274.766 507.812 309.604 509.776 339.866 497.651C345.325 495.471 350.629 492.847 355.932 490.223C364.194 486.134 372.453 482.047 381.291 479.648C393.936 476.281 407.493 476.616 420 480.43V20C420 8.95431 411.046 0 400 0H20Z" fill="white"/>
</svg>
