<?xml version="1.0" standalone="no"?>
<!DOCTYPE svg PUBLIC "-//W3C//DTD SVG 20010904//EN"
 "http://www.w3.org/TR/2001/REC-SVG-20010904/DTD/svg10.dtd">
<svg version="1.0" xmlns="http://www.w3.org/2000/svg"
 width="1184.000000pt" height="1184.000000pt" viewBox="0 0 1184.000000 1184.000000"
 preserveAspectRatio="xMidYMid meet">
<metadata>
Created by potrace 1.14, written by Peter Selinger 2001-2017
</metadata>
<g transform="translate(0.000000,1184.000000) scale(0.100000,-0.100000)"
fill="#000000" stroke="none">
<path d="M5861 10462 c-54 -126 -124 -272 -132 -272 -15 0 -102 -143 -150
-248 -104 -229 -242 -490 -429 -812 -62 -107 -144 -249 -181 -315 -37 -66 -84
-146 -104 -178 -20 -32 -57 -94 -81 -137 -24 -44 -82 -145 -128 -224 -47 -80
-99 -172 -115 -205 -17 -32 -42 -76 -55 -96 -25 -36 -94 -164 -211 -393 -163
-315 -205 -373 -286 -389 -50 -10 -15 -30 -509 295 -276 182 -425 289 -595
426 -115 94 -306 266 -352 319 -18 20 -36 37 -41 37 -5 0 -28 -65 -52 -145
-24 -79 -46 -142 -50 -140 -9 6 -44 -33 -63 -70 -30 -59 -138 -483 -152 -597
-3 -22 -18 -118 -35 -212 -46 -266 -67 -435 -90 -721 -11 -141 -12 -184 -10
-672 0 -358 0 -374 -20 -413 -12 -23 -28 -44 -36 -47 -54 -20 -735 101 -999
178 -193 57 -403 128 -519 176 -71 29 -134 53 -141 53 -12 0 -7 -35 30 -198 3
-14 1 -21 -6 -20 -7 2 -24 -19 -38 -47 -23 -44 -26 -60 -25 -150 1 -127 29
-243 128 -534 76 -222 84 -245 156 -416 77 -187 272 -569 353 -694 134 -207
239 -362 275 -406 23 -27 87 -106 143 -174 173 -212 387 -421 609 -596 41 -33
82 -67 93 -78 16 -16 173 -121 359 -239 40 -25 118 -70 173 -98 55 -29 118
-63 140 -75 22 -13 69 -35 105 -48 36 -13 89 -37 118 -51 85 -43 577 -201 658
-212 17 -2 67 -14 110 -28 278 -85 380 -103 482 -86 55 9 78 19 110 45 67 58
84 142 32 156 -14 4 4 5 40 2 36 -2 70 -6 77 -8 39 -12 8 26 -105 128 -210
189 -528 526 -606 641 -12 19 -44 59 -69 89 -26 30 -47 58 -47 62 0 4 -8 14
-17 22 -10 8 -12 11 -5 8 8 -4 -3 18 -23 49 -21 30 -41 53 -45 51 -4 -3 -7 3
-6 12 0 10 -4 18 -11 18 -6 0 -15 4 -20 9 -5 5 -2 6 6 1 9 -5 12 -3 9 6 -3 8
-10 14 -16 14 -5 0 -14 4 -19 9 -5 5 -3 6 5 2 6 -4 12 -4 12 -1 0 11 -32 70
-55 100 -12 17 -48 80 -80 140 -31 61 -70 133 -85 160 -34 61 -155 328 -180
398 -11 29 -42 113 -70 187 -49 130 -90 291 -90 351 0 52 26 98 64 114 40 17
121 19 181 5 22 -5 55 -12 73 -15 52 -9 156 -63 197 -103 50 -49 97 -147 140
-291 19 -66 35 -125 35 -132 0 -23 114 -298 175 -424 108 -220 319 -540 430
-650 16 -17 74 -76 127 -130 225 -231 326 -314 550 -452 136 -84 365 -200 458
-233 89 -31 205 -38 251 -15 56 28 108 85 129 142 25 67 27 201 5 328 -9 48
-17 108 -20 135 -16 164 -118 527 -205 726 -66 152 -167 337 -180 329 -5 -3
-12 0 -16 6 -4 8 -3 9 4 5 7 -4 12 -4 12 0 0 12 -82 134 -90 134 -4 0 -15 12
-25 26 -12 18 -13 24 -4 19 8 -4 3 3 -11 16 -14 13 -19 20 -11 14 12 -9 12 -7
2 13 -7 12 -16 20 -21 17 -5 -3 -12 0 -16 6 -4 8 -3 9 4 5 18 -11 15 -2 -29
86 -23 45 -47 102 -55 127 -38 120 -57 481 -34 641 5 36 11 93 14 127 7 76 61
282 112 428 34 96 303 651 323 665 8 6 41 63 101 175 24 44 57 103 75 130 17
28 46 74 64 102 58 92 119 133 178 118 40 -9 111 -89 162 -181 24 -43 64 -113
89 -154 205 -343 444 -837 477 -986 2 -10 15 -64 29 -119 99 -395 95 -739 -11
-1010 -20 -49 -36 -98 -37 -107 -1 -9 -11 -25 -22 -35 -11 -10 -13 -14 -4 -8
8 5 -1 -7 -20 -26 -37 -38 -82 -107 -60 -94 9 6 10 3 2 -11 -12 -22 -47 -65
-37 -46 11 21 -4 13 -16 -9 -9 -17 -8 -20 3 -14 7 5 1 -3 -13 -16 -56 -54
-185 -308 -262 -519 -64 -173 -66 -183 -154 -660 -36 -195 -37 -325 -4 -397
27 -62 83 -115 136 -133 59 -19 178 -8 255 24 36 15 74 29 84 31 10 3 72 34
137 70 65 36 121 65 124 65 15 0 180 110 302 202 226 169 466 415 634 648 29
41 61 83 70 93 9 9 22 30 30 45 7 15 31 56 53 92 141 235 293 606 357 873 15
60 65 152 104 190 69 67 199 114 341 124 135 9 182 -29 177 -147 -3 -77 -100
-385 -168 -535 -35 -77 -56 -128 -60 -145 -4 -22 -172 -358 -194 -389 -21 -30
-101 -177 -101 -186 0 -3 6 -3 13 1 7 4 9 3 4 -2 -5 -5 -13 -9 -17 -9 -5 0
-34 -37 -64 -83 -30 -46 -47 -77 -38 -70 10 8 7 0 -6 -19 -13 -18 -31 -37 -40
-43 -9 -5 -14 -10 -10 -10 4 0 -4 -12 -17 -26 -14 -15 -25 -31 -25 -37 0 -13
-125 -170 -229 -287 -122 -138 -308 -325 -453 -457 -71 -63 -128 -119 -128
-124 0 -6 29 -7 68 -4 37 3 61 2 55 -1 -21 -9 -15 -78 10 -115 12 -19 44 -45
72 -59 91 -46 231 -32 480 46 44 14 100 29 125 34 68 13 326 85 409 115 25 8
58 18 74 21 48 8 360 140 507 213 129 65 410 226 420 240 3 4 34 27 70 51 501
336 946 826 1307 1440 49 82 233 441 233 453 0 3 19 45 41 94 42 89 58 130
147 373 49 135 117 349 148 470 10 37 18 106 18 160 1 84 -2 101 -25 145 -14
28 -32 49 -39 47 -8 -2 -11 5 -7 20 3 13 11 52 17 88 6 36 13 75 15 88 7 29
-8 28 -76 -2 -329 -145 -993 -320 -1404 -371 -66 -8 -139 -18 -163 -21 -23 -3
-41 -2 -40 3 1 4 -9 28 -22 53 l-24 45 -1 490 c-1 374 -5 528 -18 650 -49 478
-62 570 -123 864 -19 91 -39 190 -44 219 -27 159 -95 344 -159 434 -18 26 -43
87 -62 156 -18 61 -36 112 -40 112 -4 0 -56 -49 -115 -108 -121 -120 -298
-271 -477 -404 -151 -112 -886 -600 -873 -579 3 5 -12 11 -35 15 -66 11 -113
71 -230 294 -56 109 -113 219 -126 246 -13 26 -34 64 -47 85 -13 20 -45 77
-71 126 -26 50 -107 191 -178 315 -72 124 -165 286 -207 360 -42 74 -87 151
-99 170 -41 64 -311 544 -311 554 0 5 -6 17 -14 25 -17 19 -147 264 -213 401
-123 256 -181 365 -210 395 -34 35 -70 102 -134 248 -22 51 -44 95 -47 99 -4
4 -18 -19 -31 -50z m-131 -290 c0 -5 -7 -17 -15 -28 -14 -18 -14 -17 -4 9 12
27 19 34 19 19z m182 -801 c59 -22 90 -77 416 -731 342 -684 452 -910 452
-922 0 -4 29 -68 65 -143 36 -74 65 -139 65 -144 0 -5 20 -51 44 -102 25 -52
79 -179 122 -284 64 -159 77 -202 82 -263 3 -55 0 -83 -13 -120 -10 -26 -19
-49 -19 -52 -1 -6 -5 -11 -78 -100 -30 -36 -69 -85 -88 -110 -18 -25 -43 -54
-55 -65 -11 -11 -14 -15 -5 -10 13 9 13 8 1 -7 -7 -10 -17 -15 -23 -12 -5 3
-15 1 -22 -6 -8 -6 -29 -15 -46 -20 -44 -13 -87 7 -131 58 -40 47 -429 817
-429 850 0 16 -157 350 -180 381 -12 17 -26 28 -32 25 -7 -4 -8 -2 -4 4 4 7 3
12 -3 12 -10 0 -98 218 -126 314 -9 32 -20 54 -24 49 -5 -4 -20 -44 -35 -88
-55 -158 -99 -264 -108 -262 -17 4 -94 -135 -163 -293 -37 -85 -75 -171 -84
-190 -22 -44 -129 -262 -264 -540 -58 -118 -122 -234 -141 -257 -39 -45 -91
-68 -122 -56 -48 19 -125 79 -155 120 -17 25 -60 79 -95 119 -73 86 -104 158
-104 241 0 65 43 198 115 363 26 58 56 128 67 155 19 50 118 269 188 420 21
44 60 130 88 190 94 208 670 1354 703 1400 32 44 82 84 106 85 6 0 22 -4 35
-9z m2945 -2441 c62 -37 89 -121 127 -390 36 -263 51 -510 51 -870 0 -351 -8
-431 -50 -492 -22 -32 -29 -35 -196 -74 -96 -22 -222 -54 -281 -69 -122 -34
-141 -30 -175 34 -27 48 -39 99 -63 273 -48 343 -79 486 -178 828 -45 156 -56
209 -56 265 1 141 35 172 431 384 243 130 323 152 390 111z m-5788 -9 c34 -10
105 -44 159 -74 53 -30 114 -62 134 -70 20 -9 90 -47 156 -86 229 -135 250
-199 162 -481 -24 -74 -51 -169 -60 -210 -95 -405 -124 -557 -135 -713 -7
-103 -21 -163 -50 -212 -43 -75 -44 -75 -302 -12 -125 30 -251 61 -279 67 -94
21 -122 87 -134 315 -18 366 34 1037 105 1339 34 145 100 182 244 137z m1372
-921 c25 -7 60 -35 117 -94 169 -176 206 -334 139 -606 -40 -166 -66 -320 -87
-525 -21 -199 -37 -265 -73 -290 -42 -30 -76 -19 -208 68 -153 100 -167 109
-153 103 6 -3 -1 18 -15 46 -24 49 -26 61 -26 207 0 86 2 188 3 226 8 150 69
506 114 659 11 38 21 78 23 88 7 35 40 82 75 105 38 26 42 27 91 13z m2973
-15 c66 -61 112 -228 170 -625 54 -360 57 -547 12 -647 -23 -49 -24 -52 -5
-43 40 22 17 1 -28 -25 -27 -16 -93 -58 -148 -95 -120 -80 -129 -84 -171 -70
-63 21 -77 65 -99 310 -13 147 -33 262 -80 475 -66 300 -52 420 69 589 79 110
141 155 212 156 30 0 48 -7 68 -25z m-5874 -1525 c572 -61 532 -56 568 -74 42
-22 107 -95 135 -151 13 -27 41 -102 62 -165 46 -140 124 -347 172 -455 65
-145 227 -458 290 -560 34 -55 80 -130 102 -167 23 -36 111 -160 197 -274 248
-331 277 -374 284 -422 4 -23 3 -45 -2 -48 -4 -3 -6 -10 -2 -15 7 -12 -22 0
-180 76 -418 199 -812 489 -1124 829 -119 129 -181 202 -162 191 19 -10 -12
28 -55 70 -17 17 -22 23 -11 15 16 -13 16 -10 -4 18 -23 31 -39 44 -24 20 5
-9 2 -9 -9 1 -18 15 -23 26 -7 16 18 -11 11 5 -22 53 -46 67 -60 82 -71 75 -6
-3 -7 -1 -3 5 4 6 -37 87 -90 179 -179 310 -294 570 -294 666 0 60 34 102 93
115 56 13 49 13 157 2z m8877 -29 c35 -16 43 -26 49 -55 8 -46 -3 -136 -23
-184 -84 -203 -207 -439 -325 -625 -26 -40 -51 -82 -55 -93 -6 -17 -5 -18 13
-4 17 14 18 14 6 -2 -8 -10 -19 -16 -24 -15 -6 1 -13 -4 -16 -12 -3 -9 0 -11
9 -6 8 5 11 4 6 -1 -5 -5 -13 -9 -18 -9 -11 0 -109 -135 -109 -151 0 -7 -15
-25 -34 -42 -19 -17 -32 -32 -30 -35 3 -2 -7 -12 -21 -21 -14 -9 -23 -21 -20
-27 9 -14 -376 -394 -500 -493 -133 -106 -332 -241 -479 -325 -132 -77 -447
-229 -423 -205 4 4 2 13 -4 21 -7 7 -9 27 -5 45 8 41 77 156 130 216 125 143
382 511 492 707 162 288 296 582 394 865 80 230 117 307 171 353 60 52 108 63
374 88 127 11 232 23 234 25 2 2 41 4 85 4 58 0 93 -6 123 -19z m-3042 -798
c45 -44 -27 -267 -146 -453 -74 -114 -90 -148 -67 -134 7 4 8 3 4 -5 -4 -6
-11 -9 -16 -6 -9 6 -71 -77 -74 -99 -1 -8 -14 -26 -28 -42 -14 -16 -64 -72
-111 -124 -102 -114 -231 -233 -391 -360 -17 -13 -25 -17 -18 -8 11 14 8 15
-32 11 -81 -10 -105 48 -70 168 30 101 182 378 262 477 17 20 66 82 110 137
87 110 276 298 362 362 70 51 148 93 177 93 12 0 29 -8 38 -17z m-2861 -22
c166 -85 427 -356 614 -637 142 -212 202 -342 209 -452 6 -96 -6 -117 -66
-116 -28 1 -38 -2 -34 -10 8 -12 -54 36 -172 135 -93 78 -283 270 -310 314
-10 17 -30 40 -44 53 -15 13 -19 20 -11 16 8 -3 -1 8 -20 25 -19 18 -29 30
-22 26 6 -3 12 -3 12 0 0 7 -80 127 -90 135 -3 3 -34 55 -68 117 -71 127 -115
233 -131 314 -23 112 20 137 133 80z m1613 -1003 c-3 -8 -6 -5 -6 6 -1 11 2
17 5 13 3 -3 4 -12 1 -19z m-10 -60 c-3 -7 -5 -2 -5 12 0 14 2 19 5 13 2 -7 2
-19 0 -25z m-10 -65 c-3 -10 -5 -4 -5 12 0 17 2 24 5 18 2 -7 2 -21 0 -30z
m-10 -90 c-3 -10 -5 -2 -5 17 0 19 2 27 5 18 2 -10 2 -26 0 -35z m-10 -170
c-2 -16 -4 -3 -4 27 0 30 2 43 4 28 2 -16 2 -40 0 -55z m1390 -499 c-3 -3 -12
-4 -19 -1 -8 3 -5 6 6 6 11 1 17 -2 13 -5z"/>
</g>
</svg>
